<?xml version="1.0" standalone="no"?>
<!DOCTYPE svg PUBLIC "-//W3C//DTD SVG 20010904//EN"
 "http://www.w3.org/TR/2001/REC-SVG-20010904/DTD/svg10.dtd">
<svg version="1.0" xmlns="http://www.w3.org/2000/svg"
 width="1080.000000pt" height="1080.000000pt" viewBox="0 0 1080.000000 1080.000000"
 preserveAspectRatio="xMidYMid meet">

<g transform="translate(0.000000,1080.000000) scale(0.100000,-0.100000)"
fill="#000000" stroke="none">
<path d="M0 5400 l0 -5400 5400 0 5400 0 0 5400 0 5400 -5400 0 -5400 0 0
-5400z m1888 3182 c35 -12 81 -22 102 -22 20 0 57 -7 81 -16 24 -8 80 -22 124
-30 43 -9 88 -20 99 -26 10 -6 53 -15 94 -20 41 -5 83 -13 93 -19 10 -5 58
-18 106 -28 48 -10 102 -23 118 -29 41 -14 147 -40 225 -56 36 -7 82 -20 104
-29 21 -10 55 -17 76 -17 20 0 63 -9 96 -19 32 -11 84 -22 114 -26 30 -4 77
-16 103 -26 26 -11 66 -19 87 -19 30 0 46 -6 62 -25 12 -14 27 -25 34 -25 7 0
19 -8 26 -19 7 -10 24 -22 38 -26 14 -4 32 -13 40 -20 8 -7 32 -17 53 -20 28
-5 41 -14 47 -31 12 -32 21 -30 43 7 17 31 19 32 75 26 31 -4 83 -16 114 -27
32 -11 71 -20 88 -20 17 0 56 -8 88 -19 31 -10 87 -24 123 -30 68 -11 129 -36
129 -51 0 -5 -9 -14 -20 -20 -17 -9 -20 -21 -20 -93 0 -45 -4 -88 -9 -95 -9
-14 -69 -8 -104 10 -10 5 -55 16 -100 23 -122 21 -236 45 -287 61 -25 8 -55
14 -66 14 -26 0 -40 15 -49 53 -4 16 -14 31 -21 34 -19 7 -44 -15 -44 -40 0
-11 -7 -28 -16 -38 -8 -9 -30 -91 -50 -189 -19 -95 -36 -176 -39 -179 -2 -4
-9 -45 -15 -91 -6 -48 -20 -99 -31 -116 -13 -22 -19 -50 -19 -93 0 -41 -6 -74
-19 -99 -11 -21 -23 -71 -27 -111 -3 -39 -15 -89 -25 -109 -12 -22 -19 -57
-19 -92 0 -36 -6 -65 -19 -86 -12 -19 -22 -61 -26 -110 -5 -50 -13 -86 -24
-97 -10 -12 -18 -46 -22 -96 -4 -59 -11 -85 -27 -106 -17 -21 -22 -41 -22 -89
-1 -39 -8 -75 -20 -101 -11 -22 -20 -44 -20 -50 -1 -14 -50 -84 -86 -122 -30
-30 -33 -31 -125 -33 -121 -2 -205 8 -249 32 -19 10 -52 18 -73 18 -23 0 -51
8 -67 20 -20 14 -52 22 -107 26 -46 4 -90 14 -108 24 -16 10 -59 20 -95 23
-36 3 -78 12 -94 20 -15 8 -60 18 -99 22 -39 4 -87 15 -107 25 -19 10 -66 21
-105 24 -39 4 -77 14 -86 22 -10 9 -45 17 -90 20 -42 3 -89 13 -109 24 -19 10
-66 21 -104 25 -39 4 -86 16 -105 26 -23 12 -56 19 -91 19 -37 0 -68 7 -94 21
-24 13 -61 21 -102 23 -42 2 -70 9 -82 19 -10 10 -23 17 -29 17 -6 0 -16 7
-23 16 -8 8 -28 21 -47 29 -18 8 -33 19 -33 25 0 6 -9 23 -21 39 -30 41 -32
208 -2 266 11 23 23 72 27 113 3 41 14 84 23 98 10 16 18 54 21 102 4 66 2 79
-15 94 -21 19 -122 48 -168 48 -24 0 -35 6 -43 25 -14 31 -5 107 18 155 9 19
20 67 24 105 4 39 14 81 23 94 9 14 18 55 21 95 2 42 12 83 22 101 10 17 20
59 24 95 3 36 18 94 33 128 26 62 28 64 57 57 44 -9 178 -35 196 -38 8 -1 21
12 28 28 8 17 22 39 32 50 11 13 20 45 23 88 4 45 13 78 27 97 12 17 20 44 20
68 0 45 45 166 73 197 41 46 67 84 67 98 0 22 7 23 169 21 121 -1 157 -4 209
-22z m3005 -25 c4 -7 6 -42 6 -78 -2 -79 3 -89 41 -89 21 0 35 8 46 25 15 23
22 26 73 23 l56 -3 5 -40 c5 -37 8 -40 39 -43 45 -5 101 -60 101 -101 0 -20 7
-34 20 -41 12 -7 20 -21 20 -37 0 -20 18 -44 71 -95 38 -37 67 -73 64 -78 -3
-6 -20 -10 -37 -10 -39 0 -98 -61 -98 -102 0 -17 -7 -31 -20 -38 -13 -7 -20
-21 -20 -38 0 -37 -17 -52 -56 -52 -28 0 -33 -4 -39 -30 -6 -26 -1 -36 32 -69
24 -24 50 -41 68 -43 29 -3 30 -5 33 -60 3 -48 0 -58 -17 -67 -13 -8 -21 -24
-23 -49 l-3 -37 -53 -3 c-47 -3 -57 0 -78 23 -14 15 -31 24 -39 21 -33 -12
-45 5 -45 63 0 45 4 59 20 69 24 15 26 38 4 46 -9 3 -37 6 -64 6 l-47 0 -7 48
c-3 27 -9 52 -13 56 -3 3 -7 56 -7 117 -1 105 -2 112 -23 120 -16 6 -29 2 -47
-12 -33 -26 -66 -17 -89 23 l-18 31 -99 -6 -100 -5 0 60 c0 51 -3 61 -20 65
-23 6 -28 33 -6 33 26 0 27 30 1 54 -14 13 -25 26 -25 30 0 3 25 6 56 6 50 0
59 3 85 31 25 26 29 39 29 85 0 46 3 56 25 70 22 14 25 23 25 74 0 46 4 59 16
62 35 7 149 -5 157 -15z m-318 -777 c0 -22 -29 -18 -33 3 -3 14 1 18 15 15 10
-2 18 -10 18 -18z m334 -149 c22 -20 31 -38 31 -60 0 -20 7 -34 20 -41 14 -8
20 -21 20 -45 0 -33 -2 -35 -34 -35 -18 0 -39 -7 -47 -16 -11 -13 -7 -20 26
-50 21 -19 42 -34 47 -34 25 0 -2 -39 -83 -119 -91 -89 -92 -90 -85 -129 5
-37 3 -42 -48 -96 -30 -31 -57 -56 -60 -56 -4 0 -31 24 -61 54 -41 40 -55 61
-55 83 0 17 -8 33 -20 41 -13 8 -20 23 -20 42 0 20 -8 35 -24 45 -22 15 -24
21 -19 74 5 53 4 58 -21 74 -20 14 -25 23 -20 41 4 19 0 28 -20 41 l-26 17 29
29 c46 46 61 39 61 -26 0 -59 6 -66 32 -36 14 16 26 18 81 14 87 -7 130 8 142
49 6 19 22 38 40 48 35 19 44 54 20 80 -43 47 45 57 94 11z m665 -27 c3 -9 6
-31 6 -49 0 -59 -6 -65 -70 -65 -64 0 -70 6 -70 65 0 59 6 65 70 65 44 0 59
-4 64 -16z m541 -184 l0 -105 -105 0 -105 0 -3 94 c-1 52 0 101 2 108 4 11 29
13 108 11 l103 -3 0 -105z m500 -90 l0 -105 -130 0 -130 0 -3 94 c-1 52 0 101
2 108 4 11 33 13 133 11 l128 -3 0 -105z m499 4 c11 -30 7 -229 -6 -242 -8 -8
-56 -12 -148 -12 -92 0 -140 4 -148 12 -8 8 -12 50 -12 123 0 73 4 115 12 123
8 8 57 12 154 12 120 0 143 -2 148 -16z m489 -84 c4 0 6 -78 5 -172 l-3 -173
-150 -3 c-82 -1 -160 0 -172 3 -23 5 -23 8 -23 168 0 90 4 167 9 173 8 7 239
10 334 4z m547 -260 l0 -210 -211 2 -211 3 1 203 c0 111 0 204 1 207 0 3 95 5
210 5 l210 0 0 -210z m-3710 121 c0 -5 31 -40 70 -78 45 -44 70 -76 70 -90 0
-32 -103 -133 -135 -133 -16 0 -47 23 -99 75 -42 41 -76 77 -76 80 0 3 33 39
73 79 67 69 97 90 97 67z m4584 -56 c15 -23 22 -25 96 -25 70 0 79 -2 85 -20
6 -18 15 -20 85 -20 74 0 81 -2 96 -25 15 -23 22 -25 95 -25 80 0 100 -9 78
-36 -11 -13 -42 -14 -223 -8 -136 4 -214 11 -218 18 -4 6 -8 23 -8 38 0 26 -2
26 -84 33 -78 7 -85 9 -90 31 -15 60 55 90 88 39z m802 -259 c71 -71 104 -111
104 -126 0 -15 24 -47 70 -92 40 -39 70 -77 70 -89 0 -31 -64 -89 -99 -89 -20
0 -34 -8 -46 -26 -15 -24 -21 -25 -60 -19 -39 5 -47 3 -66 -19 -14 -16 -33
-26 -49 -26 -16 0 -35 -10 -48 -25 -21 -24 -27 -25 -137 -25 -111 0 -115 1
-131 25 -15 23 -22 25 -93 25 -65 0 -78 3 -89 20 -10 17 -23 20 -87 20 -68 0
-76 2 -91 25 -15 23 -22 25 -92 25 -67 0 -77 3 -98 26 -13 14 -29 22 -34 19
-6 -3 -19 -3 -30 0 -25 8 -27 45 -2 46 108 3 279 -4 289 -12 6 -6 13 -25 15
-42 l3 -32 240 0 240 0 3 234 c1 152 6 239 13 248 7 7 31 13 56 13 43 0 48 -3
149 -104z m-4062 -1291 c79 -21 135 -56 198 -124 64 -68 110 -153 133 -241 23
-87 16 -223 -14 -305 -34 -90 -72 -217 -67 -223 6 -6 243 25 340 44 114 23
206 15 292 -25 86 -40 143 -87 182 -148 50 -80 65 -142 60 -248 -3 -82 -8
-101 -41 -168 -62 -126 -170 -208 -367 -280 -189 -69 -192 -70 -306 -62 -136
9 -146 3 -162 -92 -16 -96 -57 -517 -83 -848 -23 -299 -19 -436 15 -533 9 -24
18 -71 22 -105 18 -181 -100 -397 -261 -475 -113 -56 -278 -61 -387 -12 -67
29 -159 118 -196 188 -58 109 -66 159 -64 429 1 367 27 645 98 1048 19 110 37
246 41 303 l6 102 -274 0 c-197 0 -288 4 -324 14 -205 54 -324 228 -313 458 3
73 9 96 37 152 38 74 123 161 190 196 70 35 224 70 310 70 70 0 301 -22 379
-35 l32 -6 0 176 c0 157 19 359 36 387 3 5 10 41 15 79 10 85 37 138 97 197
91 88 240 122 376 87z m3905 -313 c119 -35 216 -126 265 -249 46 -115 42 -220
-13 -336 -58 -121 -97 -154 -421 -352 -96 -59 -221 -139 -276 -179 -56 -39
-117 -79 -135 -90 l-34 -18 30 -13 c17 -7 145 -51 285 -97 352 -117 780 -278
903 -339 190 -95 293 -186 353 -312 92 -195 62 -401 -84 -559 -103 -112 -327
-265 -515 -353 -122 -57 -226 -88 -393 -120 -77 -15 -166 -36 -199 -47 -148
-51 -307 -149 -495 -304 -180 -150 -375 -267 -495 -299 -156 -40 -332 7 -427
115 -59 65 -109 176 -115 253 -16 203 86 358 318 484 95 51 620 304 1092 526
59 28 104 54 100 58 -4 4 -184 91 -399 193 -330 156 -402 187 -463 197 -51 7
-76 8 -85 0 -22 -18 -146 -42 -225 -43 -309 -3 -522 183 -521 455 1 97 13 146
62 246 72 145 196 251 357 303 40 13 94 42 141 77 41 31 131 92 198 136 300
194 404 278 505 405 99 126 206 199 361 250 124 41 218 44 325 12z m-8465
-167 c160 -34 256 -144 275 -317 7 -58 57 -297 77 -366 7 -24 105 46 277 198
264 232 453 330 639 330 141 0 259 -49 343 -142 79 -89 111 -175 109 -303 -1
-93 -24 -163 -80 -238 -47 -65 -104 -103 -230 -153 -110 -45 -184 -83 -374
-194 -168 -98 -272 -153 -385 -201 -156 -67 -221 -119 -289 -233 l-35 -58 92
-71 c51 -39 212 -172 359 -294 450 -376 692 -554 934 -687 67 -36 124 -66 128
-66 4 0 63 -27 133 -61 146 -70 217 -132 261 -226 22 -49 27 -71 26 -143 0
-74 -4 -94 -31 -152 -41 -87 -76 -131 -138 -173 -161 -107 -359 -84 -686 79
-141 71 -167 89 -651 458 -229 175 -419 318 -423 318 -3 0 -5 -31 -5 -68 0
-193 -107 -394 -246 -465 -99 -50 -224 -53 -319 -7 -64 31 -155 126 -197 207
-57 107 -72 202 -73 440 0 217 1 212 -52 192 -48 -18 -181 -13 -248 11 -122
42 -226 138 -260 240 -12 36 -16 74 -13 128 4 91 28 148 92 219 l42 47 -32 53
c-134 224 8 503 281 554 66 12 121 6 200 -21 l55 -19 0 253 0 254 -31 98 c-26
86 -30 110 -27 184 6 112 38 181 129 271 69 69 145 113 219 128 64 13 77 12
154 -4z"/>
<path d="M1735 8560 c-3 -5 1 -10 9 -10 9 0 16 5 16 10 0 6 -4 10 -9 10 -6 0
-13 -4 -16 -10z"/>
<path d="M1900 8520 c-13 -9 -13 -11 0 -20 19 -12 35 -8 35 10 0 18 -16 22
-35 10z"/>
<path d="M2097 8474 c-9 -10 2 -24 19 -24 8 0 14 7 14 15 0 15 -21 21 -33 9z"/>
<path d="M2474 8379 c-7 -11 12 -29 31 -29 19 0 38 18 31 29 -4 6 -18 11 -31
11 -13 0 -27 -5 -31 -11z"/>
<path d="M2671 8341 c-18 -11 -5 -31 20 -31 12 0 19 7 19 20 0 21 -16 26 -39
11z"/>
<path d="M2823 8293 c-22 -8 -14 -21 17 -28 32 -7 65 9 54 26 -5 9 -50 11 -71
2z"/>
<path d="M3039 8249 c-12 -8 -12 -10 0 -18 15 -10 41 -4 41 9 0 13 -26 19 -41
9z"/>
<path d="M1416 8241 c-4 -6 -3 -19 3 -28 9 -17 10 -17 17 0 8 21 -10 45 -20
28z"/>
<path d="M3235 8190 c3 -5 12 -10 20 -10 8 0 17 5 20 10 4 6 -5 10 -20 10 -15
0 -24 -4 -20 -10z"/>
<path d="M3460 8150 c0 -5 5 -10 11 -10 5 0 7 5 4 10 -3 6 -8 10 -11 10 -2 0
-4 -4 -4 -10z"/>
<path d="M1376 8031 c-4 -7 -5 -15 -2 -18 9 -9 19 4 14 18 -4 11 -6 11 -12 0z"/>
<path d="M3456 7085 c-10 -26 -7 -35 9 -35 17 0 19 18 6 38 -7 11 -10 10 -15
-3z"/>
<path d="M1150 7055 c0 -14 5 -25 10 -25 6 0 10 11 10 25 0 14 -4 25 -10 25
-5 0 -10 -11 -10 -25z"/>
<path d="M1104 6886 c-8 -22 4 -68 16 -61 13 8 13 62 0 70 -6 3 -13 -1 -16 -9z"/>
<path d="M3410 6880 c0 -11 5 -20 10 -20 6 0 10 9 10 20 0 11 -4 20 -10 20 -5
0 -10 -9 -10 -20z"/>
<path d="M1055 6700 c-8 -13 5 -61 16 -54 12 7 12 64 0 64 -6 0 -12 -4 -16
-10z"/>
<path d="M3371 6684 c0 -11 3 -14 6 -6 3 7 2 16 -1 19 -3 4 -6 -2 -5 -13z"/>
<path d="M3320 6475 c0 -14 5 -25 10 -25 6 0 10 11 10 25 0 14 -4 25 -10 25
-5 0 -10 -11 -10 -25z"/>
<path d="M1290 6330 c0 -5 14 -10 30 -10 17 0 30 5 30 10 0 6 -13 10 -30 10
-16 0 -30 -4 -30 -10z"/>
<path d="M1690 6250 c-13 -9 -13 -11 0 -20 9 -6 18 -6 24 0 15 15 -6 31 -24
20z"/>
<path d="M2090 6150 c0 -5 9 -10 20 -10 11 0 20 5 20 10 0 6 -9 10 -20 10 -11
0 -20 -4 -20 -10z"/>
<path d="M2285 6111 c-7 -12 12 -24 25 -16 11 7 4 25 -10 25 -5 0 -11 -4 -15
-9z"/>
<path d="M2495 6060 c-3 -5 1 -10 9 -10 9 0 16 5 16 10 0 6 -4 10 -9 10 -6 0
-13 -4 -16 -10z"/>
</g>
</svg>
